PathFileType  4	(X/Y/Z) C:\Users\antoi\Documents\MyRepositories\mobilecap\ResultsAnalysis
DataRate	CameraRate	NumFrames	NumMarkers	Units	OrigDataRate	OrigDataStartFrame	OrigNumFrames
100.0	100.0	4	51	mm	100.0	162	259
Frame#	Time	r_knee			r_shank_antsup			r_ankle			r_calc			r_5meta			r_toe			L_knee			L_shank_antsup			L_ankle			L_calc			L_5meta			L_toe			r_sh2			r_sh3			r_sh4			L_sh2			L_sh3			r_thigh1			r_thigh2			r_thigh3			r_thigh4			r_thigh5			L_thigh1			L_thigh2			L_thigh3			L_thigh4			r.ASIS			r.PSIS			L.ASIS			L.PSIS			C7			R_Shoulder			L_Shoulder			R_Sternum			L_Sternum			R_humerus			R_elbow_med			R_elbow_lat			R_forearm			R_wrist_radius			R_wrist_ulna			L_humerus			L_elbow_med			L_elbow_lat			L_forearm			L_wrist_radius			L_wrist_ulna			R_HJC			L_HJC			R_HJC_reg			L_HJC_reg			
		X1	Y1	Z1	X2	Y2	Z2	X3	Y3	Z3	X4	Y4	Z4	X5	Y5	Z5	X6	Y6	Z6	X7	Y7	Z7	X8	Y8	Z8	X9	Y9	Z9	X10	Y10	Z10	X11	Y11	Z11	X12	Y12	Z12	X13	Y13	Z13	X14	Y14	Z14	X15	Y15	Z15	X16	Y16	Z16	X17	Y17	Z17	X18	Y18	Z18	X19	Y19	Z19	X20	Y20	Z20	X21	Y21	Z21	X22	Y22	Z22	X23	Y23	Z23	X24	Y24	Z24	X25	Y25	Z25	X26	Y26	Z26	X27	Y27	Z27	X28	Y28	Z28	X29	Y29	Z29	X30	Y30	Z30	X31	Y31	Z31	X32	Y32	Z32	X33	Y33	Z33	X34	Y34	Z34	X35	Y35	Z35	X36	Y36	Z36	X37	Y37	Z37	X38	Y38	Z38	X39	Y39	Z39	X40	Y40	Z40	X41	Y41	Z41	X42	Y42	Z42	X43	Y43	Z43	X44	Y44	Z44	X45	Y45	Z45	X46	Y46	Z46	X47	Y47	Z47	X48	Y48	Z48	X49	Y49	Z49	X50	Y50	Z50	X51	Y51	Z51	

162	1.61000000	-90.89393	470.66236	-347.29889	-76.61267	347.64319	-365.60365	-306.82242	102.44428	-404.09571	-379.55753	71.16464	-468.53079	-205.29995	35.53939	-339.54788	-147.89013	55.11522	-403.41784	-82.74619	476.45019	-768.17214	-53.43170	361.13010	-745.90320	-279.82228	96.11258	-744.60685	-354.60614	68.48930	-695.02494	-155.34509	37.02940	-780.79998	-119.61064	55.13678	-710.55358	-126.31287	249.85618	-399.12254	-139.12847	363.44078	-322.57977	-183.76581	254.93873	-338.91507	-123.04256	394.66130	-791.01292	-154.09791	275.49638	-797.65081	-223.58577	686.76573	-375.15595	-129.00123	626.88832	-377.23880	-125.58847	586.10028	-323.88913	-267.96809	610.95588	-302.73858	-164.68058	550.63646	-310.21542	-248.61024	680.23518	-753.66199	-127.20585	616.07077	-759.22795	-300.43014	587.50125	-798.22089	-177.92378	522.02489	-793.25875	-352.38210	761.30409	-408.86030	-501.78183	843.05478	-497.57749	-328.27521	737.59170	-667.37124	-499.26000	843.02915	-597.85120	-134.20623	1195.04199	-517.81790	-118.59646	1082.56784	-345.21239	-83.42138	1106.06472	-678.72313	-56.17296	1046.72039	-491.18283	-54.19560	1049.37231	-534.27919	-160.24943	936.45579	-274.12336	-300.41478	740.25950	-266.68249	-260.86356	762.65038	-199.89272	-182.69960	605.44169	-198.88499	-152.70748	487.62403	-197.96674	-175.74325	482.05574	-162.41198	-116.20152	965.24507	-783.29620	-246.74747	778.70153	-824.42260	-194.94103	799.02709	-877.86443	-123.39147	647.96650	-857.39193	-96.86403	539.01931	-886.39911	-118.78901	539.32214	-927.11473	-441.08640	704.58707	-440.55329	-430.19237	680.29373	-652.28317	-432.89954	696.90313	-447.07099	-428.56743	696.85867	-619.08371	
163	1.62000000	-88.76089	470.28603	-345.68042	-75.64863	347.27700	-364.45171	-306.45607	102.45636	-404.64005	-379.29728	71.41451	-468.75319	-205.30255	35.63008	-339.60958	-147.76785	55.21842	-403.43603	-75.94912	478.96423	-771.88834	-50.44055	358.67898	-745.49437	-279.67651	96.14163	-744.78099	-354.64721	68.61460	-695.27637	-155.32072	36.94986	-780.84890	-119.66415	55.08245	-710.71147	-125.38760	249.30519	-398.45062	-137.80333	362.49172	-321.82626	-183.06580	254.47315	-338.48859	-120.45071	393.07167	-792.71579	-152.25938	274.37269	-797.70696	-223.78626	684.96339	-375.15696	-128.65175	624.68755	-377.87170	-124.80541	585.84521	-323.76707	-266.81626	607.61375	-303.50839	-163.79112	550.27337	-309.34727	-247.30079	676.95828	-753.50273	-124.41432	615.08124	-758.27346	-298.02986	584.43451	-797.05029	-175.50273	521.05290	-795.48550	-353.19424	759.11486	-407.43065	-502.70312	838.41867	-498.08773	-324.39858	736.09832	-665.40300	-499.57998	838.88390	-597.81247	-141.57396	1195.26522	-517.65368	-121.70649	1085.96497	-344.93903	-84.50988	1109.69699	-676.29930	-59.43547	1049.73517	-490.50003	-57.24009	1051.99079	-532.98861	-148.44394	941.46652	-267.57025	-257.02259	727.70931	-258.14401	-223.08951	757.39621	-190.25681	-116.32862	616.75218	-193.99633	-64.65347	508.19888	-194.37469	-85.08315	497.30202	-159.28933	-97.61700	969.93950	-783.11073	-198.46616	764.39662	-827.46378	-150.11209	795.54271	-879.74471	-54.63859	658.39896	-852.79958	-8.24078	556.81501	-878.20189	-26.53553	551.98509	-919.14843	-440.41119	700.90846	-440.28726	-426.08836	677.24178	-651.87577	-431.16927	693.22013	-446.22175	-425.78828	694.02191	-618.13060	
164	1.63000000	-86.99504	469.64989	-344.25437	-73.98766	345.95923	-364.10141	-306.06030	102.70083	-405.13100	-378.92727	71.72809	-469.19518	-205.29976	35.88991	-339.72010	-147.55388	55.40336	-403.37946	-77.16305	474.43104	-771.06215	-46.32313	356.55934	-745.25701	-279.49925	96.32377	-745.05594	-354.62518	68.80643	-695.41433	-155.30279	36.93481	-780.84868	-119.66074	55.06365	-710.73022	-124.10376	248.27338	-398.24005	-135.96146	360.59488	-321.71646	-181.95446	253.58703	-338.25182	-118.38833	390.68183	-792.58239	-150.43244	273.39163	-797.87157	-223.80527	683.29166	-375.98934	-127.22732	623.85387	-378.37019	-123.54587	587.16876	-323.30463	-264.87348	604.86654	-304.35340	-162.47447	549.16909	-309.52222	-246.39043	674.75788	-754.48884	-121.56254	612.82857	-758.74388	-295.04088	581.75219	-795.72794	-173.07289	518.60911	-795.17815	-354.13680	755.85791	-408.24146	-503.85980	834.01926	-498.48821	-323.56414	735.25374	-666.10913	-500.51099	835.32116	-598.12863	-149.80974	1196.52222	-517.62197	-124.71503	1090.98296	-345.01811	-85.91817	1115.65867	-673.78718	-62.72538	1054.47469	-489.50423	-60.75584	1056.28184	-531.55069	-135.11118	950.56421	-261.63991	-213.16812	723.18307	-249.04096	-185.13467	760.17266	-181.14361	-52.84291	640.58952	-190.86025	18.07362	544.63865	-194.20835	1.64572	529.70314	-158.64208	-79.16222	979.15223	-781.90627	-147.70237	759.51019	-828.52179	-104.71165	800.57220	-880.25428	11.77909	680.62096	-845.40970	76.27529	589.12931	-864.37748	61.93010	578.88202	-907.28550	-440.25134	696.76692	-441.73597	-424.77945	675.11944	-653.45635	-430.80779	689.46366	-447.67242	-425.03614	691.70619	-619.48715	
165	1.64000000	-85.06222	468.07153	-343.67663	-71.84542	343.81930	-364.13771	-305.82881	103.18180	-405.40904	-378.56793	72.02041	-469.66587	-205.32794	36.18536	-339.80702	-147.37397	55.59454	-403.28849	-80.23663	468.17430	-768.14398	-43.99977	355.48283	-745.14447	-279.28165	96.50580	-745.23562	-354.56510	68.94372	-695.32817	-155.28024	36.95744	-780.81768	-119.60934	55.06325	-710.61850	-122.71095	247.01560	-398.12035	-134.11210	359.10417	-321.63202	-180.88335	252.86297	-338.03898	-116.18560	389.17599	-791.62505	-148.73508	272.54599	-797.97863	-222.70801	681.75498	-376.73159	-124.53749	623.94090	-378.01831	-121.06313	586.93555	-322.67852	-262.88319	603.57149	-304.79216	-160.02660	546.98009	-310.48499	-244.14506	673.54547	-756.33196	-118.84490	610.41804	-759.42141	-291.89437	579.51915	-795.40570	-169.96362	515.82918	-793.43500	-353.82029	752.46932	-410.09131	-504.93470	830.24962	-499.20087	-323.13902	734.93068	-668.07140	-501.24995	832.26711	-598.68115	-157.95979	1199.26823	-517.67590	-127.04393	1098.21770	-345.48812	-87.73945	1123.81302	-670.46239	-66.00851	1060.74000	-488.36543	-64.44703	1062.11939	-530.19435	-121.00739	962.80683	-257.43445	-169.54284	726.67252	-239.30088	-146.95172	770.70466	-172.68356	6.28006	675.81517	-189.18629	92.99092	595.00429	-196.93256	81.13494	578.40695	-159.70247	-61.15842	992.75725	-779.34989	-96.44324	765.14881	-828.02549	-59.35685	813.73711	-878.70831	74.00877	714.03019	-835.32467	153.76929	634.61091	-847.39358	142.92132	620.66631	-892.17315	-439.37855	692.85177	-443.98137	-423.86971	673.62655	-655.94012	-430.26139	686.17690	-450.33565	-423.90052	689.66009	-622.03762	
